<?xml version="1.0" ?><svg id="Guidelines" viewBox="0 0 512 512" xmlns="http://www.w3.org/2000/svg"><defs><style>.cls-1{fill:#231f20;}</style></defs><path class="cls-1" d="M364.72,327.21H107.82a28.79,28.79,0,0,1-28.75-28.75V213.54a28.79,28.79,0,0,1,28.75-28.75h36.89a6,6,0,0,1,0,12H107.82a16.78,16.78,0,0,0-16.76,16.76v84.92a16.78,16.78,0,0,0,16.76,16.76h256.9a16.78,16.78,0,0,0,16.76-16.76V213.54a16.78,16.78,0,0,0-16.76-16.76h-136a6,6,0,1,1,0-12h136a28.79,28.79,0,0,1,28.75,28.75v84.92A28.79,28.79,0,0,1,364.72,327.21Z"/><path class="cls-1" d="M192.62,196.78H169.29a6,6,0,1,1,0-12h23.33a6,6,0,0,1,0,12Z"/><rect class="cls-1" height="87.29" rx="10.4" width="57.31" x="106.89" y="212.36"/><path class="cls-1" d="M421.21,235.8a2.13,2.13,0,0,1,2.13,2.12v36.16a2.13,2.13,0,0,1-2.13,2.12h-8a2.13,2.13,0,0,1-2.13-2.12V237.92a2.13,2.13,0,0,1,2.13-2.12h8m0-9.59h-8a11.72,11.72,0,0,0-11.72,11.71v36.16a11.72,11.72,0,0,0,11.72,11.72h8a11.72,11.72,0,0,0,11.72-11.72V237.92a11.72,11.72,0,0,0-11.72-11.71Z"/></svg>