<?xml version="1.0" ?><svg id="Guidelines" viewBox="0 0 512 512" xmlns="http://www.w3.org/2000/svg"><defs><style>.cls-1{fill:#231f20;}</style></defs><path class="cls-1" d="M384.76,179.53a6,6,0,0,1-6-6V133.34H338.58a6,6,0,1,1,0-12h46.18a6,6,0,0,1,6,6v46.18A6,6,0,0,1,384.76,179.53Z"/><path class="cls-1" d="M298.92,219.18A6,6,0,0,1,294.68,209l84.84-84.83a6,6,0,0,1,8.47,8.47l-84.83,84.84A6,6,0,0,1,298.92,219.18Z"/><path class="cls-1" d="M267.14,390.65H127.24a6,6,0,0,1-6-6V244.75a6,6,0,0,1,6-6h16.29a6,6,0,1,1,0,12h-10.3V378.66H261.14V250.75H177.35a6,6,0,1,1,0-12h89.79a6,6,0,0,1,6,6v139.9A6,6,0,0,1,267.14,390.65Z"/></svg>